<svg viewBox="0 0 53.8557 56.4604" xmlns="http://www.w3.org/2000/svg" xmlns:xlink="http://www.w3.org/1999/xlink" width="53.855713" height="56.460449" fill="none">
	<defs>
		<g id="pixso_custom_effect_0">
			<effect x="0.000000" y="4.000000" visibility="visible" fill="rgb(0,0,0)" fill-opacity="0.25" effectType="dropShadow" stdDeviation="4" radius="0" />
		</g>
		<filter id="filter_0" width="53.855713" height="56.460449" x="0.000000" y="0.000000" filterUnits="userSpaceOnUse" customEffect="url(#pixso_custom_effect_0)" color-interpolation-filters="sRGB">
			<feFlood flood-opacity="0" result="BackgroundImageFix" />
			<feColorMatrix result="hardAlpha" in="SourceAlpha" type="matrix" values="0 0 0 0 0 0 0 0 0 0 0 0 0 0 0 0 0 0 127 0 " />
			<feOffset dx="0.000000" dy="4.000000" in="hardAlpha" />
			<feGaussianBlur stdDeviation="1.33333337" />
			<feComposite k2="-1" k3="1" in2="hardAlpha" operator="out" />
			<feColorMatrix type="matrix" values="0 0 0 0 0 0 0 0 0 0 0 0 0 0 0 0 0 0 0.25 0 " />
			<feBlend result="effect_dropShadow_1" in2="BackgroundImageFix" mode="normal" />
			<feBlend result="shape" in="SourceGraphic" in2="effect_dropShadow_1" mode="normal" />
		</filter>
		<clipPath id="clipPath_0">
			<rect width="53.000000" height="52.000000" x="0.483521" y="0.000000" fill="rgb(255,255,255)" />
		</clipPath>
	</defs>
	<g clip-path="url(#clipPath_0)" filter="url(#filter_0)" customFrame="url(#clipPath_0)">
		<rect id="Полет туда и обратно 6" width="53.000000" height="52.000000" x="0.483521" y="0.000000" />
		<path id="Форма 9" d="M6.00459 21.6665C6.00459 21.6665 4.45929 26.7882 4.81672 29.8762C5.17414 32.9642 8.51447 35.2886 11.5252 33.5832C14.5359 31.8778 49.0675 10.8332 49.0675 10.8332L39.13 8.6665L10.4216 25.9998L6.00459 21.6665Z" fill-rule="nonzero" stroke="rgb(130,109,254)" stroke-linecap="round" stroke-linejoin="round" stroke-width="1.500000" />
		<path id="Форма 10" d="M29.1919 14.0835L12.4062 12.3335L9.31689 14.0835L17.0459 21.6667" fill-rule="nonzero" stroke="rgb(130,109,254)" stroke-linecap="round" stroke-linejoin="round" stroke-width="1.500000" />
		<path id="Форма 11" d="M32.5043 47.6665L28.0876 42.2498L46.8585 42.2498L46.8585 37.9165" fill-rule="nonzero" stroke="rgb(130,109,254)" stroke-linecap="round" stroke-linejoin="round" stroke-width="1.500000" />
		<path id="Форма 12" d="M35.8168 30.3335L40.2335 35.7502L21.4626 35.7502L21.4626 40.0835" fill-rule="nonzero" stroke="rgb(130,109,254)" stroke-linecap="round" stroke-linejoin="round" stroke-width="1.500000" />
	</g>
</svg>
