<svg viewBox="0 0 122 122" xmlns="http://www.w3.org/2000/svg" xmlns:xlink="http://www.w3.org/1999/xlink" width="122.000000" height="122.000000" fill="none">
	<defs>
		<g id="pixso_custom_effect_1">
			<effect x="0.000000" y="4.000000" visibility="visible" fill="rgb(0,0,0)" fill-opacity="0.25" effectType="dropShadow" stdDeviation="4" radius="0" />
		</g>
		<filter id="filter_1" width="122.000000" height="122.000000" x="0.000000" y="0.000000" filterUnits="userSpaceOnUse" customEffect="url(#pixso_custom_effect_1)" color-interpolation-filters="sRGB">
			<feFlood flood-opacity="0" result="BackgroundImageFix" />
			<feColorMatrix result="hardAlpha" in="SourceAlpha" type="matrix" values="0 0 0 0 0 0 0 0 0 0 0 0 0 0 0 0 0 0 127 0 " />
			<feOffset dx="0.000000" dy="4.000000" in="hardAlpha" />
			<feGaussianBlur stdDeviation="1.33333337" />
			<feComposite k2="-1" k3="1" in2="hardAlpha" operator="out" />
			<feColorMatrix type="matrix" values="0 0 0 0 0 0 0 0 0 0 0 0 0 0 0 0 0 0 0.25 0 " />
			<feBlend result="effect_dropShadow_1" in2="BackgroundImageFix" mode="normal" />
			<feBlend result="shape" in="SourceGraphic" in2="effect_dropShadow_1" mode="normal" />
		</filter>
		<clipPath id="clipPath_1">
			<rect width="122.000000" height="122.000000" x="0.000000" y="0.000000" fill="rgb(255,255,255)" />
		</clipPath>
	</defs>
	<g clip-path="url(#clipPath_1)" filter="url(#filter_1)" customFrame="url(#clipPath_1)">
		<rect id="Столовый нож и вилка 5" width="122.000000" height="122.000000" x="0.000000" y="0.000000" />
		<path id="Форма 5" d="M35.5834 10.1665L35.5834 111.833" stroke="rgb(130,109,254)" stroke-linecap="round" stroke-linejoin="round" stroke-width="1.500000" />
		<path id="Форма 6" d="M20.3334 12.7085L20.3334 38.1252C20.3334 50.8335 35.5834 50.8335 35.5834 50.8335C35.5834 50.8335 50.8334 50.8335 50.8334 38.1252L50.8334 12.7085" fill-rule="nonzero" stroke="rgb(130,109,254)" stroke-linecap="round" stroke-linejoin="round" stroke-width="1.500000" />
		<path id="Форма 7" d="M76.25 30.4998C76.25 10.1665 96.5833 10.1665 96.5833 10.1665L96.5833 53.3748L76.25 53.3748L76.25 30.4998Z" fill-rule="nonzero" />
		<path id="Форма 8" d="M96.5833 53.3748L76.25 53.3748L76.25 30.4998C76.25 10.1665 96.5833 10.1665 96.5833 10.1665L96.5833 53.3748L96.5833 111.833" fill-rule="nonzero" stroke="rgb(130,109,254)" stroke-linecap="round" stroke-linejoin="round" stroke-width="1.500000" />
	</g>
</svg>
